<mxfile host="app.diagrams.net" modified="2024-06-27T23:57:38.089Z" agent="Mozilla/5.0 (Windows NT 10.0; Win64; x64) AppleWebKit/537.36 (KHTML, like Gecko) Chrome/123.0.0.0 Safari/537.36 OPR/109.0.0.0" version="24.6.4" etag="ydtQfGPSqr8JEKig7kGh" type="github">
  <diagram name="PÃ¡gina-1" id="MC9HsX5HIXpegdKyrHWd">
    <mxGraphModel>
      <root>
        <mxCell id="0" />
        <mxCell id="1" parent="0" />
      </root>
    </mxGraphModel>
  </diagram>
</mxfile>
